Coordinates
version=1
nRows=10
nColumns=40
inDegrees=yes

Units are S.I. units (second, meters, Newtons, ...)
Angles are in degrees.

endheader
time	pelvis_tilt	pelvis_list	pelvis_rotation	pelvis_tx	pelvis_ty	pelvis_tz	hip_flexion_r	hip_adduction_r	hip_rotation_r	knee_angle_r	knee_angle_r_beta	ankle_angle_r	subtalar_angle_r	mtp_angle_r	hip_flexion_l	hip_adduction_l	hip_rotation_l	knee_angle_l	knee_angle_l_beta	ankle_angle_l	subtalar_angle_l	mtp_angle_l	lumbar_extension	lumbar_bending	lumbar_rotation	arm_flex_r	arm_add_r	arm_rot_r	elbow_flex_r	pro_sup_r	wrist_flex_r	wrist_dev_r	arm_flex_l	arm_add_l	arm_rot_l	elbow_flex_l	pro_sup_l	wrist_flex_l	wrist_dev_l
     40.72000000	     -4.61239242	     -3.08066324	     -4.54503744	      0.88027960	      0.92858977	      0.42189921	     27.66396642	     -3.00149803	    -16.13235052	     12.71972909	     12.71972909	      1.79542290	      7.18706488	      9.68322221	      4.32725951	     -2.47182033	    -13.39070827	     12.77418991	     12.77418991	     14.65145942	     -4.30257691	    -10.16434793	     -9.64096098	      0.50061624	      0.69088303	    -13.75016316	    -16.47467540	    -12.25987767	     24.57126477	     47.34509722	      0.00000000	      0.00000000	     21.76250770	    -16.33047307	    -14.19379639	     68.60075771	     47.74993911	      0.00000000	      0.00000000
     40.73357143	     -4.48579555	     -2.85436404	     -4.65818943	      0.88175001	      0.92791577	      0.42326136	     27.23504761	     -2.91324053	    -16.03737928	     13.03832057	     13.03832057	      1.80084394	      7.13468584	      9.30113925	      3.08956760	     -2.14270164	    -13.69864115	     11.78304880	     11.78304880	     14.85392980	     -3.61262566	    -10.17268849	     -9.60294951	      0.25825388	      0.83380752	    -14.65020173	    -16.58831012	    -12.44820369	     24.67343855	     47.33624688	      0.00000000	      0.00000000	     21.30154499	    -16.13580700	    -14.55220648	     69.65582550	     47.78722898	      0.00000000	      0.00000000
     40.74714286	     -4.52940663	     -2.76842731	     -4.62381759	      0.88314545	      0.92680702	      0.42463085	     26.89306731	     -2.73722600	    -15.94702764	     13.50432640	     13.50432640	      1.84880711	      6.92508320	      9.01131733	      2.49202607	     -2.08618638	    -13.67406072	     11.66142598	     11.66142598	     15.23935418	     -3.51360778	    -10.27910884	     -9.36075831	      0.23173081	      0.69338270	    -15.29643725	    -16.69276851	    -12.54407558	     24.62207171	     47.33670165	      0.00000000	      0.00000000	     20.84884246	    -16.18780567	    -14.71575896	     69.83375777	     47.79807388	      0.00000000	      0.00000000
     40.76071429	     -4.46596219	     -2.56155172	     -4.60809706	      0.88479335	      0.92564993	      0.42618699	     26.48376626	     -2.63078800	    -15.18735747	     14.15208738	     14.15208738	      1.08052901	      5.81165807	      5.81688048	      1.67671392	     -1.91632163	    -13.96189635	     11.40008962	     11.40008962	     15.87460372	     -2.68989463	     -9.93428590	     -9.30353341	      0.01699354	      0.14499501	    -15.99785296	    -16.75019993	    -13.16499868	     26.31932401	     47.25633075	      0.00000000	      0.00000000	     19.46987093	    -16.21118039	    -15.99283204	     71.95156762	     47.90259257	      0.00000000	      0.00000000
     40.77428571	     -4.46523247	     -2.44884564	     -4.50978555	      0.88643621	      0.92447124	      0.42766773	     26.20320447	     -2.56391962	    -14.71275837	     15.13494747	     15.13494747	      1.28361103	      5.21466049	      5.17534525	      1.05138258	     -1.85397522	    -13.93407677	     11.33306445	     11.33306445	     16.27887664	     -2.48232884	     -9.89430641	     -9.09569287	     -0.02938588	      0.01269711	    -16.33767064	    -16.76123313	    -13.19459041	     26.27142529	     47.24976132	      0.00000000	      0.00000000	     19.04060098	    -16.13403230	    -16.07304418	     71.77795224	     47.90019487	      0.00000000	      0.00000000
     40.78785714	     -4.49672365	     -2.33828090	     -4.38808499	      0.88810447	      0.92327444	      0.42935026	     25.79740971	     -2.35013553	    -13.64186967	     15.70924887	     15.70924887	      0.60760634	      3.60656209	      2.25162111	      0.62473539	     -1.90097456	    -14.17891428	     11.65704214	     11.65704214	     17.28786646	     -1.63974499	     -8.79019875	     -8.88030875	     -0.07504916	     -0.21690941	    -16.67081920	    -16.65666629	    -13.28649362	     26.86650466	     47.17274401	      0.00000000	      0.00000000	     18.36061049	    -15.96948299	    -16.66477291	     71.81179940	     47.92066201	      0.00000000	      0.00000000
     40.80142857	     -4.48487605	     -2.27580675	     -4.22915109	      0.88987277	      0.92229664	      0.43094994	     25.51916289	     -2.27932173	    -13.06036481	     16.71973893	     16.71973893	      0.96812933	      2.84261997	      1.68359375	      0.08276585	     -1.93814792	    -14.05686786	     11.78059848	     11.78059848	     17.66257237	     -1.50758391	     -8.67028701	     -8.72287579	     -0.03264535	     -0.36167650	    -16.70489414	    -16.54059579	    -13.27814214	     26.93349833	     47.15981835	      0.00000000	      0.00000000	     17.74323206	    -15.81167413	    -16.67750451	     71.42894902	     47.90770428	      0.00000000	      0.00000000
     40.81500000	     -4.56313790	     -2.32915091	     -4.05131455	      0.89163174	      0.92153703	      0.43267689	     25.07557693	     -2.07521084	    -12.69434343	     17.17887811	     17.17887811	      1.45506695	      2.62310982	      1.38454591	     -0.34893573	     -2.12307307	    -13.83748078	     11.91525557	     11.91525557	     17.90889897	     -1.49220436	     -8.68688585	     -8.50494463	      0.07846472	     -0.33227412	    -16.63964105	    -16.28118010	    -13.24593624	     26.98361871	     47.15341545	      0.00000000	      0.00000000	     17.11778252	    -15.48524339	    -16.61459508	     71.14455005	     47.89324880	      0.00000000	      0.00000000
     40.82857143	     -4.56068723	     -2.33361970	     -3.92211169	      0.89318311	      0.92087958	      0.43466982	     24.98767950	     -1.77384473	    -11.23058046	     18.19878507	     18.19878507	      1.12330106	     -0.03538438	     -0.96160854	     -0.54948072	     -2.41111074	    -14.12613547	     12.79278053	     12.79278053	     19.27363373	     -0.57828355	     -6.28053890	     -8.40445094	      0.25034735	     -0.60158934	    -16.30831517	    -16.18349202	    -12.82584594	     27.51189805	     47.03653891	      0.00000000	      0.00000000	     16.51301818	    -15.15263975	    -17.35582879	     69.76231315	     47.88773542	      0.00000000	      0.00000000
     40.84214286	     -4.60018929	     -2.41748112	     -3.77018748	      0.89475380	      0.92058245	      0.43667670	     24.80265058	     -1.53875329	    -10.58409401	     19.00290404	     19.00290404	      1.66939625	     -1.10146271	     -1.29170475	     -0.87122810	     -2.68631795	    -13.92028300	     13.19853106	     13.19853106	     19.45087062	     -0.70119999	     -5.98470208	     -8.30705974	      0.45638725	     -0.71644440	    -15.75251798	    -15.97738755	    -12.67301648	     27.77508187	     47.00544995	      0.00000000	      0.00000000	     15.75046041	    -14.93827140	    -17.33595508	     68.87436317	     47.85920813	      0.00000000	      0.00000000
